<svg width="32" height="32" viewBox="0 0 32 32" fill="none" xmlns="http://www.w3.org/2000/svg">
  <!-- Shield Background -->
  <path d="M16 2L4 7V15C4 22 10 28 16 30C22 28 28 22 28 15V7L16 2Z" fill="#2563EB"/>
  <path d="M16 2L4 7V15C4 22 10 28 16 30C22 28 28 22 28 15V7L16 2Z" stroke="#1E40AF" stroke-width="1.5" stroke-linejoin="round"/>
  
  <!-- Lock Icon Inside Shield -->
  <rect x="12" y="14" width="8" height="6" rx="1" fill="white"/>
  <path d="M13 14V12C13 10.3431 14.3431 9 16 9C17.6569 9 19 10.3431 19 12V14" stroke="white" stroke-width="1.5" stroke-linecap="round"/>
  <circle cx="16" cy="17" r="1" fill="#2563EB"/>
</svg>
